PathFileType	4	(X/Y/Z)	/Users/itak/Documents/Research/Walk-IL/dataset/trc/00027_00004.trc
DataRate	CameraRate	NumFrames	NumMarkers	Units	OrigDataRate	OrigDataStartFrame	OrigNumFrames
100.000000	100.000000	4	53	mm	100.000000	0	613
Frame#	Time	RPSI			LPSI			L3			STRN			T10			C7			CLAV			RBAK			LBAK			LSHO			LUPA			LAEL			LAOL			LWTS			LWPS			LFRA			LIFD			LHPS			LHTS			RSHO			RUPA			RAEL			RAOL			RWTS			RWPS			RFRA			RIFD			RHTS			RHPS			RBHD			LFHD			RFHD			LBHD			LHIP			RHIP			RASI			LASI			LKNE			LTHI			LANK			LTIP			LTOE			LMT1			LMT5			LHEE			RKNE			RTHI			RANK			RTIP			RTOE			RMT1			RMT5			RHEE			
		X1	Y1	Z1	X2	Y2	Z2	X3	Y3	Z3	X4	Y4	Z4	X5	Y5	Z5	X6	Y6	Z6	X7	Y7	Z7	X8	Y8	Z8	X9	Y9	Z9	X10	Y10	Z10	X11	Y11	Z11	X12	Y12	Z12	X13	Y13	Z13	X14	Y14	Z14	X15	Y15	Z15	X16	Y16	Z16	X17	Y17	Z17	X18	Y18	Z18	X19	Y19	Z19	X20	Y20	Z20	X21	Y21	Z21	X22	Y22	Z22	X23	Y23	Z23	X24	Y24	Z24	X25	Y25	Z25	X26	Y26	Z26	X27	Y27	Z27	X28	Y28	Z28	X29	Y29	Z29	X30	Y30	Z30	X31	Y31	Z31	X32	Y32	Z32	X33	Y33	Z33	X34	Y34	Z34	X35	Y35	Z35	X36	Y36	Z36	X37	Y37	Z37	X38	Y38	Z38	X39	Y39	Z39	X40	Y40	Z40	X41	Y41	Z41	X42	Y42	Z42	X43	Y43	Z43	X44	Y44	Z44	X45	Y45	Z45	X46	Y46	Z46	X47	Y47	Z47	X48	Y48	Z48	X49	Y49	Z49	X50	Y50	Z50	X51	Y51	Z51	X52	Y52	Z52	X53	Y53	Z53	

1	0	216.4030151367188	1033.186645507812	1083.06787109375	183.3482055664062	1019.455078125	923.3739013671875	195.3762512207031	1083.744140625	994.8715209960938	423.8507690429688	1263.389770507812	946.905029296875	179.1905670166016	1231.296752929688	991.8352661132812	238.5195617675781	1494.545654296875	952.4880981445312	388.7743835449219	1391.178588867188	938.6137084960938	193.2790374755859	1367.603393554688	1051.1728515625	200.7915954589844	1446.895263671875	864.1184692382812	287.3468322753906	1440.085205078125	772.5577392578125	231.7820892333984	1312.170776367188	715.024658203125	203.2522888183594	1096.382568359375	709.6660766601562	178.4366149902344	1093.984497070312	813.8605346679688	286.12939453125	840.024658203125	751.357666015625	198.8686065673828	829.801025390625	739.2559204101562	203.5038299560547	979.5369873046875	708.6270141601562	307.1054077148438	655.5737915039062	773.811279296875	224.8968811035156	736.9235229492188	735.0166015625	296.0711975097656	744.7654418945312	738.5180053710938	343.7984924316406	1484.78271484375	1112.362548828125	335.9790344238281	1422.932983398438	1191.0859375	279.0493469238281	1166.127685546875	1254.13232421875	262.6729125976562	1127.004028320312	1160.1982421875	372.3587646484375	888.7150268554688	1239.368530273438	318.6968078613281	891.9117431640625	1314.437622070312	285.2906799316406	1091.28271484375	1276.213500976562	361.6418151855469	702.8441162109375	1252.895751953125	394.6541137695312	778.6956176757812	1265.951416015625	346.5777893066406	788.6449584960938	1323.133422851562	255.6740417480469	1658.937377929688	917.697265625	467.8433227539062	1682.597412109375	868.2101440429688	396.1756591796875	1672.90478515625	801.8738403320312	366.9573669433594	1670.529418945312	1010.390075683594	265.3308410644531	917.4039306640625	794.7325439453125	332.7293395996094	913.9888305664062	1166.361206054688	429.4636535644531	938.302001953125	1079.640625	385.8746032714844	960.3146362304688	847.6812744140625	486.1954650878906	527.9732055664062	795.7600708007812	391.7631530761719	635.6134643554688	780.465087890625	512.8903198242188	34.16511535644531	845.3135375976562	468.481201171875	273.1867980957031	815.2399291992188	729.5770874023438	69.53313446044922	794.7615356445312	687.6699829101562	66.92563629150391	837.82470703125	609.7705078125	50.85735321044922	768.1068725585938	479.1478271484375	36.7580451965332	924.125	229.8716125488281	492.6055603027344	1161.345825195312	317.5383911132812	751.3785400390625	1169.113525390625	-87.74456787109375	93.22390747070312	1187.018310546875	153.0196075439453	384.7112426757812	1175.393310546875	128.3283843994141	43.86276626586914	1143.519775390625	70.26028442382812	57.80092239379883	1114.908935546875	49.52289962768555	41.8719367980957	1209.608276367188	-142.5895843505859	114.1992111206055	1144.734497070312	
2	0.01	222.6840057373047	1033.674560546875	1080.594604492188	188.4802703857422	1019.924682617188	921.2944946289062	200.7236480712891	1084.12646484375	992.7307739257812	428.8133850097656	1263.973388671875	943.0664672851562	184.1294555664062	1231.682373046875	989.0902709960938	243.1567687988281	1494.866088867188	949.2938232421875	393.5998229980469	1391.695190429688	934.9105224609375	198.5510406494141	1367.899291992188	1048.219360351562	205.17626953125	1447.188720703125	861.0694580078125	291.4036254882812	1440.541625976562	769.2295532226562	236.0061645507812	1312.524047851562	711.8842163085938	208.0612640380859	1096.660888671875	706.6476440429688	183.4426574707031	1094.24560546875	810.8042602539062	291.2875366210938	840.3882446289062	748.3342895507812	204.0273590087891	830.09912109375	736.3960571289062	208.5115966796875	979.8208618164062	705.6852416992188	312.4858703613281	655.9547119140625	770.9302368164062	230.1425323486328	737.35205078125	732.4732055664062	301.2990417480469	745.1461181640625	735.5623779296875	349.1170959472656	1485.311401367188	1108.753784179688	341.5086059570312	1423.516357421875	1187.5087890625	284.4800415039062	1166.921630859375	1250.755249023438	268.1912841796875	1127.627807617188	1156.882446289062	377.5271606445312	889.3850708007812	1236.619384765625	323.8084411621094	892.8012084960938	1311.6123046875	290.5445251464844	1092.102783203125	1272.9189453125	366.6395874023438	703.5271606445312	1250.569702148438	399.6696472167969	779.3564453125	1263.483642578125	351.6504211425781	789.5349731445312	1320.599975585938	260.1116943359375	1659.4423828125	914.687255859375	472.0185241699219	1683.128784179688	863.96728515625	399.9485168457031	1673.4638671875	798.0668334960938	371.9486083984375	1670.9912109375	1006.729370117188	269.6967468261719	918.200439453125	792.0490112304688	339.2911682128906	914.2230224609375	1163.121459960938	435.50341796875	938.709716796875	1075.765258789062	390.4249877929688	960.8760375976562	844.1395263671875	491.0303955078125	528.3634033203125	792.6663208007812	396.8533020019531	636.5892333984375	777.4299926757812	513.4246215820312	33.95388412475586	844.8660888671875	471.7687683105469	273.1834106445312	812.9124755859375	730.7449951171875	66.93812561035156	795.0421752929688	688.5755615234375	65.22481536865234	837.8961181640625	610.6920776367188	49.33552551269531	767.9680786132812	479.4920349121094	37.4096794128418	923.628173828125	237.26416015625	492.4817504882812	1159.670654296875	324.3524780273438	751.6022338867188	1166.125854492188	-85.86631011962891	96.77482604980469	1187.762817382812	159.2284851074219	385.3876953125	1174.54052734375	127.9384765625	43.90735626220703	1143.744750976562	70.85843658447266	58.26442718505859	1114.89990234375	50.39926528930664	41.92527770996094	1209.8134765625	-139.8708038330078	119.1326446533203	1145.456420898438	
3	0.02	230.5768432617188	1034.319580078125	1077.388061523438	194.9585876464844	1020.503784179688	918.5563354492188	207.4830627441406	1084.643798828125	989.8900756835938	435.0661315917969	1264.775146484375	938.1951293945312	190.3812713623047	1232.182495117188	985.642822265625	248.9693908691406	1495.31396484375	945.2826538085938	399.63427734375	1392.4169921875	930.2151489257812	205.1873626708984	1368.319702148438	1044.509765625	210.6685333251953	1447.601684570312	857.2518310546875	296.4833679199219	1441.19140625	765.0453491210938	241.2766723632812	1313.057006835938	707.918212890625	214.0733032226562	1097.088623046875	702.823486328125	189.7402801513672	1094.642333984375	806.9667358398438	297.8125305175781	840.9426879882812	744.461181640625	210.5527648925781	830.5405883789062	732.7387084960938	214.7902679443359	980.2579956054688	701.943359375	319.3162536621094	656.5308227539062	767.23095703125	236.7960357666016	737.9323120117188	729.1166381835938	307.9275207519531	745.70849609375	731.7727661132812	355.8124389648438	1486.043823242188	1104.177368164062	348.5146179199219	1424.328979492188	1182.979858398438	291.3687744140625	1167.994018554688	1246.4833984375	275.1577453613281	1128.506225585938	1152.689819335938	384.0881042480469	890.3029174804688	1233.093505859375	330.3054504394531	893.9749145507812	1307.999633789062	297.284912109375	1093.236694335938	1268.811157226562	372.9780578613281	704.4885864257812	1247.517333984375	406.0277099609375	780.2630615234375	1260.282836914062	358.0665283203125	790.7096557617188	1317.31201171875	265.6997985839844	1660.11962890625	910.8870239257812	477.2527465820312	1683.83203125	858.63916015625	404.6737976074219	1674.208129882812	793.2764892578125	378.192626953125	1671.6064453125	1002.116882324219	275.228271484375	919.1229858398438	788.6038818359375	347.5684814453125	914.6063232421875	1158.952758789062	443.1008605957031	939.3235473632812	1070.839111328125	396.2112121582031	961.6217651367188	839.639892578125	496.8732604980469	528.6864013671875	788.8356323242188	403.0304870605469	637.6255493164062	773.640625	514.035400390625	33.72920989990234	844.3506469726562	475.7471008300781	273.1248779296875	810.1383666992188	732.1209106445312	63.70402908325195	795.3187866210938	689.6456298828125	63.02499008178711	837.9174194335938	611.7483520507812	47.53337478637695	767.7537841796875	479.9402160644531	38.17670822143555	923.0367431640625	247.0435791015625	492.2807922363281	1157.522338867188	333.0414123535156	751.9505615234375	1162.293334960938	-83.14574432373047	101.4600143432617	1188.633666992188	167.5278625488281	386.1876525878906	1173.396118164062	127.4994812011719	43.93493270874023	1143.999755859375	71.74748229980469	58.87309646606445	1114.904663085938	51.59326171875	42.16701889038086	1210.0458984375	-135.9857025146484	125.6606674194336	1146.30517578125	
4	0.03	239.7426147460938	1035.107177734375	1073.524047851562	202.5322113037109	1021.167053222656	915.2035522460938	215.3843231201172	1085.292358398438	986.3880615234375	442.3533020019531	1265.788330078125	932.4672241210938	197.7147827148438	1232.779541015625	981.6243896484375	255.7113037109375	1495.890991210938	940.6189575195312	406.6199951171875	1393.341552734375	924.7021484375	212.9159698486328	1368.867553710938	1040.19140625	217.0345458984375	1448.135986328125	852.825927734375	302.3628540039062	1442.036254882812	760.173095703125	247.3549346923828	1313.780639648438	703.2803955078125	221.0204620361328	1097.679443359375	698.3330078125	197.0619964599609	1095.187744140625	802.4993286132812	305.4558715820312	841.7085571289062	739.8577880859375	218.1985321044922	831.1359252929688	728.40283203125	222.0712585449219	980.863037109375	697.5308837890625	327.3590698242188	657.3253173828125	762.8153076171875	244.6136016845703	738.6661987304688	725.0219116210938	315.716796875	746.4702758789062	727.2604370117188	363.6114501953125	1486.976928710938	1098.803588867188	356.7319641113281	1425.369262695312	1177.670043945312	299.4663696289062	1169.328491210938	1241.4853515625	283.2993774414062	1129.639038085938	1147.787963867188	391.8086853027344	891.4585571289062	1228.897094726562	337.9675903320312	895.4043579101562	1303.7177734375	305.2973937988281	1094.67431640625	1264.067749023438	380.4200134277344	705.714599609375	1243.80029296875	413.5063781738281	781.4044799804688	1256.42041015625	365.5989990234375	792.1350708007812	1313.351196289062	272.2117004394531	1660.961547851562	906.4469604492188	483.3209228515625	1684.696533203125	852.445556640625	410.1483764648438	1675.127197265625	787.6975708007812	385.4217834472656	1672.367309570312	996.7360229492188	281.7190856933594	920.09326171875	784.497802734375	357.2188415527344	915.1619873046875	1153.976318359375	451.9407348632812	940.159423828125	1065.037353515625	403.0177917480469	962.5296020507812	834.342041015625	503.373291015625	528.8447265625	784.4635620117188	409.9189758300781	638.5665283203125	769.2719116210938	514.67919921875	33.51826095581055	843.8103637695312	480.1705322265625	272.9954833984375	807.1135864257812	733.619140625	60.01066970825195	795.5411987304688	690.8097534179688	60.45646667480469	837.8535766601562	612.847412109375	45.59533309936523	767.465576171875	480.4692993164062	39.00394821166992	922.394287109375	259.053955078125	491.9892578125	1154.958251953125	343.3169860839844	752.4375610351562	1157.737548828125	-79.44132232666016	107.2802581787109	1189.576171875	177.8392333984375	387.0490417480469	1171.956909179688	127.1004867553711	43.9301643371582	1144.2451171875	72.96670532226562	59.62907028198242	1114.939086914062	53.11222076416016	42.69549560546875	1210.291748046875	-130.84423828125	133.6779022216797	1147.206909179688	
